<svg width="508" height="253" viewBox="0 0 508 253" fill="none" xmlns="http://www.w3.org/2000/svg">
<g clip-path="url(#clip0_3_4)">
<path d="M4 4.16003H414.69" stroke="#231F20" stroke-width="8" stroke-miterlimit="10"/>
<path d="M362.04 23.14V120.02" stroke="#231F20" stroke-width="8" stroke-miterlimit="10"/>
<path d="M504.44 116.74H358.11" stroke="#231F20" stroke-width="8" stroke-miterlimit="10"/>
<path d="M362.04 27.0699H433.02" stroke="#231F20" stroke-width="8" stroke-miterlimit="10"/>
<path d="M411.76 2.48999L503.94 118.22" stroke="#231F20" stroke-width="8" stroke-miterlimit="10"/>
<path d="M99.24 248.14C112.163 248.14 122.64 237.663 122.64 224.74C122.64 211.817 112.163 201.34 99.24 201.34C86.3165 201.34 75.84 211.817 75.84 224.74C75.84 237.663 86.3165 248.14 99.24 248.14Z" stroke="#231F20" stroke-width="8" stroke-miterlimit="10"/>
<path d="M393.45 248.14C406.373 248.14 416.85 237.663 416.85 224.74C416.85 211.817 406.373 201.34 393.45 201.34C380.527 201.34 370.05 211.817 370.05 224.74C370.05 237.663 380.527 248.14 393.45 248.14Z" stroke="#231F20" stroke-width="8" stroke-miterlimit="10"/>
<path d="M4 198.89H37.96" stroke="#231F20" stroke-width="8" stroke-miterlimit="10"/>
<path d="M163.2 198.89H327.13" stroke="#231F20" stroke-width="8" stroke-miterlimit="10"/>
<path d="M461.96 198.89H502.76" stroke="#231F20" stroke-width="8" stroke-miterlimit="10"/>
<path d="M33.89 198.89C33.89 169.11 65.77 145.02 99.24 145.02" stroke="#231F20" stroke-width="8" stroke-miterlimit="10"/>
<path d="M166.98 198.89C166.98 169.12 136.04 145.04 97.81 145.04" stroke="#231F20" stroke-width="8" stroke-miterlimit="10"/>
<path d="M323.2 199.98C323.2 170.2 350.28 146.11 383.74 146.11" stroke="#231F20" stroke-width="8" stroke-miterlimit="10"/>
<path d="M465.45 198.89C461.96 166.49 436 141.62 382.32 146.12" stroke="#231F20" stroke-width="8" stroke-miterlimit="10"/>
<path d="M4 228.02V0.22998" stroke="#231F20" stroke-width="8" stroke-miterlimit="10"/>
<path d="M143.56 224.74H349.09" stroke="#231F20" stroke-width="8" stroke-miterlimit="10"/>
<path d="M437.82 224.74H506.04" stroke="#231F20" stroke-width="8" stroke-miterlimit="10"/>
<path d="M54.84 224.74H0.439999" stroke="#231F20" stroke-width="8" stroke-miterlimit="10"/>
<path d="M502.76 115.87V228.74" stroke="#231F20" stroke-width="8" stroke-miterlimit="10"/>
<path d="M51.09 224.74C51.09 196.16 72.6 173.03 99.2 173.03" stroke="#231F20" stroke-width="8" stroke-miterlimit="10"/>
<path d="M147.34 224.74C147.34 196.16 125.19 173.03 97.81 173.03" stroke="#231F20" stroke-width="8" stroke-miterlimit="10"/>
<path d="M345.34 224.74C345.34 196.16 366.86 173.03 393.45 173.03" stroke="#231F20" stroke-width="8" stroke-miterlimit="10"/>
<path d="M441.56 224.74C441.56 196.16 419.41 173.03 392.03 173.03" stroke="#231F20" stroke-width="8" stroke-miterlimit="10"/>
</g>
<defs>
<clipPath id="clip0_3_4">
<rect width="507.07" height="252.14" fill="white"/>
</clipPath>
</defs>
</svg>
