<svg width="502" height="303" viewBox="0 0 502 303" fill="none" xmlns="http://www.w3.org/2000/svg">
<g clip-path="url(#clip0_8_256)">
<path d="M313.38 160.31H67.27V298.2H313.38V160.31Z" stroke="#231F20" stroke-width="8" stroke-miterlimit="10"/>
<path d="M442.55 257.18H313.38V160.31H250.11V4.53H442.55V257.18Z" stroke="#231F20" stroke-width="8" stroke-miterlimit="10"/>
<path d="M362.04 4.53H330.62V51.66H362.04V4.53Z" stroke="#231F20" stroke-width="8" stroke-miterlimit="10"/>
<path d="M206.04 160.31H174.62V207.44H206.04V160.31Z" stroke="#231F20" stroke-width="8" stroke-miterlimit="10"/>
<path d="M66.62 158.51L3.34998 255.38" stroke="#231F20" stroke-width="8" stroke-miterlimit="10"/>
<path d="M314.48 157.99L377.22 255.2" stroke="#231F20" stroke-width="8" stroke-miterlimit="10"/>
<path d="M248.86 2.19L193.64 86.72" stroke="#231F20" stroke-width="8" stroke-miterlimit="10"/>
<path d="M443.7 2.32999L498.45 87.16" stroke="#231F20" stroke-width="8" stroke-miterlimit="10"/>
<path d="M99.13 243.55L99.24 279.11" stroke="#231F20" stroke-width="8" stroke-miterlimit="10"/>
<path d="M102.35 237.41L80.51 256.67" stroke="#231F20" stroke-width="8" stroke-miterlimit="10"/>
<path d="M116.22 256.97L97.09 237.53" stroke="#231F20" stroke-width="8" stroke-miterlimit="10"/>
<path d="M144.35 237.64L122.51 256.9" stroke="#231F20" stroke-width="8" stroke-miterlimit="10"/>
<path d="M158.22 257.2L139.09 237.76" stroke="#231F20" stroke-width="8" stroke-miterlimit="10"/>
<path d="M411.33 207.96L411.44 243.52" stroke="#231F20" stroke-width="8" stroke-miterlimit="10"/>
<path d="M359.33 191.96L359.44 227.52" stroke="#231F20" stroke-width="8" stroke-miterlimit="10"/>
<path d="M414.55 201.82L392.71 221.09" stroke="#231F20" stroke-width="8" stroke-miterlimit="10"/>
<path d="M362.55 185.82L340.71 205.09" stroke="#231F20" stroke-width="8" stroke-miterlimit="10"/>
<path d="M428.42 221.38L409.29 201.94" stroke="#231F20" stroke-width="8" stroke-miterlimit="10"/>
<path d="M376.42 205.38L357.29 185.94" stroke="#231F20" stroke-width="8" stroke-miterlimit="10"/>
<path d="M141.13 243.78L141.24 279.34" stroke="#231F20" stroke-width="8" stroke-miterlimit="10"/>
</g>
<defs>
<clipPath id="clip0_8_256">
<rect width="502" height="303" fill="white"/>
</clipPath>
</defs>
</svg>
