<svg width="591" height="292" viewBox="0 0 591 292" fill="none" xmlns="http://www.w3.org/2000/svg">
<g clip-path="url(#clip0_3_5)">
<path d="M28.8 4.87H220.69" stroke="#231F20" stroke-width="8" stroke-miterlimit="10"/>
<path d="M0 287.2H590.4" stroke="#231F20" stroke-width="8" stroke-miterlimit="10"/>
<path d="M457.09 32.58V150.18" stroke="#231F20" stroke-width="8" stroke-miterlimit="10"/>
<path d="M216.65 146.03H457.09" stroke="#231F20" stroke-width="8" stroke-miterlimit="10"/>
<path d="M414.98 146.03V283.93" stroke="#231F20" stroke-width="8" stroke-miterlimit="10"/>
<path d="M449.67 146.03V283.93" stroke="#231F20" stroke-width="8" stroke-miterlimit="10"/>
<path d="M240.87 4.87L303.05 36.73" stroke="#231F20" stroke-width="8" stroke-miterlimit="10"/>
<path d="M310.99 3.56L373.17 35.41" stroke="#231F20" stroke-width="8" stroke-miterlimit="10"/>
<path d="M390.03 5.07001L452.21 36.92" stroke="#231F20" stroke-width="8" stroke-miterlimit="10"/>
<path d="M256.6 12.93V36.73" stroke="#231F20" stroke-width="8" stroke-miterlimit="10"/>
<path d="M325.31 9.98999V33.79" stroke="#231F20" stroke-width="8" stroke-miterlimit="10"/>
<path d="M402.55 12.93V36.73" stroke="#231F20" stroke-width="8" stroke-miterlimit="10"/>
<path d="M85.64 225.67V283.93" stroke="#231F20" stroke-width="8" stroke-miterlimit="10"/>
<path d="M163.53 225.67V283.93" stroke="#231F20" stroke-width="8" stroke-miterlimit="10"/>
<path d="M81.93 225.67H167.35" stroke="#231F20" stroke-width="8" stroke-miterlimit="10"/>
<path d="M124.58 283.93V225.67" stroke="#231F20" stroke-width="8" stroke-miterlimit="10"/>
<path d="M66.11 36.73V200.14" stroke="#231F20" stroke-width="8" stroke-miterlimit="10"/>
<path d="M110.62 36.73V200.14" stroke="#231F20" stroke-width="8" stroke-miterlimit="10"/>
<path d="M62.29 200.14H114.55" stroke="#231F20" stroke-width="8" stroke-miterlimit="10"/>
<path d="M65.89 158.25H110.4" stroke="#231F20" stroke-width="8" stroke-miterlimit="10"/>
<path d="M66.55 118.43H111.05" stroke="#231F20" stroke-width="8" stroke-miterlimit="10"/>
<path d="M65.89 76.43H110.4" stroke="#231F20" stroke-width="8" stroke-miterlimit="10"/>
<path d="M62.4 36.73H114.65" stroke="#231F20" stroke-width="8" stroke-miterlimit="10"/>
<path d="M141.49 36.73V200.14" stroke="#231F20" stroke-width="8" stroke-miterlimit="10"/>
<path d="M186 36.73V200.14" stroke="#231F20" stroke-width="8" stroke-miterlimit="10"/>
<path d="M137.56 200.14H189.93" stroke="#231F20" stroke-width="8" stroke-miterlimit="10"/>
<path d="M141.27 158.25H185.78" stroke="#231F20" stroke-width="8" stroke-miterlimit="10"/>
<path d="M141.93 118.43H186.44" stroke="#231F20" stroke-width="8" stroke-miterlimit="10"/>
<path d="M141.27 76.43H185.78" stroke="#231F20" stroke-width="8" stroke-miterlimit="10"/>
<path d="M137.78 36.73H190.04" stroke="#231F20" stroke-width="8" stroke-miterlimit="10"/>
<path d="M245.02 120.51H440.62" stroke="#231F20" stroke-width="8" stroke-miterlimit="10"/>
<path d="M241.42 59.85H440.62" stroke="#231F20" stroke-width="8" stroke-miterlimit="10"/>
<path d="M436.58 124.11V62.92" stroke="#231F20" stroke-width="8" stroke-miterlimit="10"/>
<path d="M245.02 124.45V55.93" stroke="#231F20" stroke-width="8" stroke-miterlimit="10"/>
<path d="M481.53 91.38V287.2" stroke="#231F20" stroke-width="8" stroke-miterlimit="10"/>
<path d="M481.53 101.31H520.36" stroke="#231F20" stroke-width="8" stroke-miterlimit="10"/>
<path d="M481.53 184.22H520.36" stroke="#231F20" stroke-width="8" stroke-miterlimit="10"/>
<path d="M520.36 97.6V187.93" stroke="#231F20" stroke-width="8" stroke-miterlimit="10"/>
<path d="M228 199.1H370.33" stroke="#231F20" stroke-width="8" stroke-miterlimit="10"/>
<path d="M351.7 207.42V237.83" stroke="#231F20" stroke-width="8" stroke-miterlimit="10"/>
<path d="M399.31 236.74H347.78" stroke="#231F20" stroke-width="8" stroke-miterlimit="10"/>
<path d="M351.7 211.48H376.87" stroke="#231F20" stroke-width="8" stroke-miterlimit="10"/>
<path d="M367.45 197.44L399.62 237.83" stroke="#231F20" stroke-width="8" stroke-miterlimit="10"/>
<path d="M263.84 280.66C268.159 280.66 271.66 277.159 271.66 272.84C271.66 268.521 268.159 265.02 263.84 265.02C259.521 265.02 256.02 268.521 256.02 272.84C256.02 277.159 259.521 280.66 263.84 280.66Z" stroke="#231F20" stroke-width="8" stroke-miterlimit="10"/>
<path d="M362.21 280.66C366.529 280.66 370.03 277.159 370.03 272.84C370.03 268.521 366.529 265.02 362.21 265.02C357.891 265.02 354.39 268.521 354.39 272.84C354.39 277.159 357.891 280.66 362.21 280.66Z" stroke="#231F20" stroke-width="8" stroke-miterlimit="10"/>
<path d="M232 273.94V197.78" stroke="#231F20" stroke-width="8" stroke-miterlimit="10"/>
<path d="M278.66 272.84H347.37" stroke="#231F20" stroke-width="8" stroke-miterlimit="10"/>
<path d="M377.04 272.84H399.85" stroke="#231F20" stroke-width="8" stroke-miterlimit="10"/>
<path d="M249 272.84H228" stroke="#231F20" stroke-width="8" stroke-miterlimit="10"/>
<path d="M398.75 235.05V276.87" stroke="#231F20" stroke-width="8" stroke-miterlimit="10"/>
<path d="M244.8 276.88C244.8 265.09 253.32 255.56 263.8 255.56" stroke="#231F20" stroke-width="8" stroke-miterlimit="10"/>
<path d="M282.76 276.88C282.76 265.09 274.09 255.56 263.36 255.56" stroke="#231F20" stroke-width="8" stroke-miterlimit="10"/>
<path d="M343.64 276.88C343.64 265.09 351.94 255.56 362.21 255.56" stroke="#231F20" stroke-width="8" stroke-miterlimit="10"/>
<path d="M380.87 276.88C380.87 265.09 372.31 255.56 361.73 255.56" stroke="#231F20" stroke-width="8" stroke-miterlimit="10"/>
<path d="M32.51 21.89H216.65" stroke="#231F20" stroke-width="8" stroke-miterlimit="10"/>
<path d="M32.51 4.87V287.2" stroke="#231F20" stroke-width="8" stroke-miterlimit="10"/>
<path d="M216.65 4.87V287.2" stroke="#231F20" stroke-width="8" stroke-miterlimit="10"/>
<path d="M218.4 36.73H457.09" stroke="#231F20" stroke-width="8" stroke-miterlimit="10"/>
</g>
<defs>
<clipPath id="clip0_3_5">
<rect width="590.4" height="291.2" fill="white"/>
</clipPath>
</defs>
</svg>
