<svg width="428" height="475" viewBox="0 0 428 475" fill="none" xmlns="http://www.w3.org/2000/svg">
<g clip-path="url(#clip0_3_9)">
<path d="M204.76 133.55C205.56 138.63 175.65 158.88 209.96 202.76C241.23 242.76 274.66 221.86 278.84 221.64" stroke="#231F20" stroke-width="8" stroke-miterlimit="10"/>
<path d="M195.97 281.49L200.58 406.54" stroke="#231F20" stroke-width="8" stroke-miterlimit="10"/>
<path d="M425.47 150.09L298.39 210.75" stroke="#231F20" stroke-width="8" stroke-miterlimit="10"/>
<path d="M156.25 310.17L162.62 408.51" stroke="#231F20" stroke-width="8" stroke-miterlimit="10"/>
<path d="M71 409L319 410" stroke="#231F20" stroke-width="8" stroke-miterlimit="10"/>
<path d="M71 457L319 458" stroke="#231F20" stroke-width="8" stroke-miterlimit="10"/>
<path d="M209.36 129.56L12.72 300.67" stroke="#231F20" stroke-width="8" stroke-miterlimit="10"/>
<path d="M74 461V405M315 461V406.5" stroke="#231F20" stroke-width="8" stroke-miterlimit="10"/>
<path d="M67.31 379.41L13 295.82" stroke="#231F20" stroke-width="8" stroke-miterlimit="10"/>
<path d="M31.49 326.25C17.74 331.71 -8.43998 369.07 10.83 390.67C52.43 437.31 19.04 459.37 8.14002 471.34" stroke="#231F20" stroke-width="8" stroke-miterlimit="10"/>
<path d="M301.63 2.31995L219.8 116.92" stroke="#231F20" stroke-width="8" stroke-miterlimit="10"/>
<path d="M281.15 219.98L62.12 378.15" stroke="#231F20" stroke-width="8" stroke-miterlimit="10"/>
<path d="M204.11 129.1L280.4 224.95" stroke="#231F20" stroke-width="8" stroke-miterlimit="10"/>
</g>
<defs>
<clipPath id="clip0_3_9">
<rect width="427.19" height="474.04" fill="white"/>
</clipPath>
</defs>
</svg>
