<svg width="535" height="186" viewBox="0 0 535 186" fill="none" xmlns="http://www.w3.org/2000/svg">
<g clip-path="url(#clip0_110_222)">
<path d="M312.56 58.25L308.22 92.54L270.78 89.24" stroke="#231F20" stroke-width="8" stroke-miterlimit="10"/>
<path d="M286.48 91.05L270.87 73.65L269.74 72.4L269.08 73.52L254.87 97.35L231.72 83.87C236.03 76.63 246.15 59.66 249.61 53.87L294.52 54.66L310.67 72.66" stroke="#231F20" stroke-width="8" stroke-miterlimit="10"/>
<path d="M297.54 122.87L269.26 147.65L291.05 174.47" stroke="#231F20" stroke-width="8" stroke-miterlimit="10"/>
<path d="M281.93 163.15L306.11 163.94C311.36 158.64 331.79 138.03 337.74 132.04C335.93 125.52 330.67 106.48 328.42 98.37L302.67 105.77C304.93 113.91 310.07 132.5 310.07 132.5L310.42 133.76L308.73 133.71L285.37 132.95" stroke="#231F20" stroke-width="8" stroke-miterlimit="10"/>
<path d="M242.7 130.15L227.27 95.88L195.27 108.88" stroke="#231F20" stroke-width="8" stroke-miterlimit="10"/>
<path d="M208.73 103.46L200.92 126.36C204.44 132.92 218.19 158.47 222.19 165.92L257.11 166.84C257.22 160.29 257.44 146.84 257.55 140.06L229.82 139.32H228.52L229.05 137.65L236.6 115.53" stroke="#231F20" stroke-width="8" stroke-miterlimit="10"/>
<path d="M519.53 42.14L458.87 183.96H75.74L18.14 42.14" stroke="#231F20" stroke-width="8" stroke-miterlimit="10"/>
<path d="M2.11 42.14H2.05V2H532.61C532.61 11.08 532.61 33.49 532.61 42.14H2.11Z" stroke="#231F20" stroke-width="8" stroke-miterlimit="10"/>
</g>
<defs>
<clipPath id="clip0_110_222">
<rect width="534.62" height="185.96" fill="white"/>
</clipPath>
</defs>
</svg>
