<svg width="584" height="327" viewBox="0 0 584 327" fill="none" xmlns="http://www.w3.org/2000/svg">
<g clip-path="url(#clip0_3_10)">
<path d="M516.18 91.05H389.85" stroke="#231F20" stroke-width="8" stroke-miterlimit="10"/>
<path d="M449.24 45.89H583.49" stroke="#231F20" stroke-width="8" stroke-miterlimit="10"/>
<path d="M579.35 0.150024V45.89" stroke="#231F20" stroke-width="8" stroke-miterlimit="10"/>
<path d="M453.02 4V45.89" stroke="#231F20" stroke-width="8" stroke-miterlimit="10"/>
<path d="M579.35 4H449.09" stroke="#231F20" stroke-width="8" stroke-miterlimit="10"/>
<path d="M4 45.89H134.33" stroke="#231F20" stroke-width="8" stroke-miterlimit="10"/>
<path d="M130.33 4V45.89" stroke="#231F20" stroke-width="8" stroke-miterlimit="10"/>
<path d="M4 4V49.89" stroke="#231F20" stroke-width="8" stroke-miterlimit="10"/>
<path d="M134.33 4H0.150024" stroke="#231F20" stroke-width="8" stroke-miterlimit="10"/>
<path d="M67.16 24.95L193.49 245.2" stroke="#231F20" stroke-width="8" stroke-miterlimit="10"/>
<path d="M516.18 24.95L389.85 245.2" stroke="#231F20" stroke-width="8" stroke-miterlimit="10"/>
<path d="M414.2 43.3101L464.4 92.3201" stroke="#231F20" stroke-width="8" stroke-miterlimit="10"/>
<path d="M395.54 62.23L426.71 91.84" stroke="#231F20" stroke-width="8" stroke-miterlimit="10"/>
<path d="M369.24 34.11C364.44 53.31 377.24 68.31 399.24 63.4" stroke="#231F20" stroke-width="8" stroke-miterlimit="10"/>
<path d="M385.71 14.87C406.55 10.34 422.97 21.28 415.49 47.33" stroke="#231F20" stroke-width="8" stroke-miterlimit="10"/>
<path d="M367.07 31.7L386.09 48.57" stroke="#231F20" stroke-width="8" stroke-miterlimit="10"/>
<path d="M399.78 26.75L382.94 46.09" stroke="#231F20" stroke-width="8" stroke-miterlimit="10"/>
<path d="M382.52 13.65L400.6 31.6" stroke="#231F20" stroke-width="8" stroke-miterlimit="10"/>
<path d="M262.11 135.07L222.4 168.29" stroke="#231F20" stroke-width="8" stroke-miterlimit="10"/>
<path d="M287.13 154.88L273.02 168.29" stroke="#231F20" stroke-width="8" stroke-miterlimit="10"/>
<path d="M228.51 123.34C234.51 121.82 274.86 124.41 262.11 135.07" stroke="#231F20" stroke-width="8" stroke-miterlimit="10"/>
<path d="M231.49 120.14C231.49 119.66 256.44 98.76 276.95 117.23" stroke="#231F20" stroke-width="8" stroke-miterlimit="10"/>
<path d="M276.3 116.63L302.16 140.74" stroke="#231F20" stroke-width="8" stroke-miterlimit="10"/>
<path d="M321.89 154.53L308.95 168.29" stroke="#231F20" stroke-width="8" stroke-miterlimit="10"/>
<path d="M287.13 154.87C288.63 153.45 299.93 156.22 303.42 167.27" stroke="#231F20" stroke-width="8" stroke-miterlimit="10"/>
<path d="M300.96 139.61C304.54 148.87 313.83 154.87 324.13 158.16" stroke="#231F20" stroke-width="8" stroke-miterlimit="10"/>
<path d="M130.33 322.11H456.8" stroke="#231F20" stroke-width="8" stroke-miterlimit="10"/>
<path d="M453.02 164.44V322.11" stroke="#231F20" stroke-width="8" stroke-miterlimit="10"/>
<path d="M130.33 172.15V325.96" stroke="#231F20" stroke-width="8" stroke-miterlimit="10"/>
<path d="M453.02 168.29H126.33" stroke="#231F20" stroke-width="8" stroke-miterlimit="10"/>
<path d="M63.2 132.95H197.38" stroke="#231F20" stroke-width="8" stroke-miterlimit="10"/>
<path d="M193.49 91.05V132.95" stroke="#231F20" stroke-width="8" stroke-miterlimit="10"/>
<path d="M67.16 91.05V132.95" stroke="#231F20" stroke-width="8" stroke-miterlimit="10"/>
<path d="M197.38 91.05H63.27" stroke="#231F20" stroke-width="8" stroke-miterlimit="10"/>
<path d="M389.85 132.95H516.18" stroke="#231F20" stroke-width="8" stroke-miterlimit="10"/>
<path d="M516.18 87.13V136.95" stroke="#231F20" stroke-width="8" stroke-miterlimit="10"/>
<path d="M389.85 87.2V136.65" stroke="#231F20" stroke-width="8" stroke-miterlimit="10"/>
</g>
<defs>
<clipPath id="clip0_3_10">
<rect width="583.49" height="326.11" fill="white"/>
</clipPath>
</defs>
</svg>
