<svg width="1920" height="673" viewBox="0 0 1920 673" fill="none" xmlns="http://www.w3.org/2000/svg">
    <g clip-path="url(#clip0_175_1969)">
        <mask id="mask0_175_1969" style="mask-type:alpha" maskUnits="userSpaceOnUse" x="420" y="118" width="1091"
            height="522">
            <g style="mix-blend-mode:color-dodge">
                <rect x="420" y="118" width="1090.52" height="521.031" fill="white" />
            </g>
        </mask>
        <g mask="url(#mask0_175_1969)">
            <path
                d="M1487.65 657.177H959.238H430.824C430.824 365.361 667.41 128.769 959.252 128.769C1251.09 128.769 1487.65 365.361 1487.65 657.177Z"
                stroke="#231F20" stroke-width="3" stroke-miterlimit="10" />
        </g>
    </g>
    <g clip-path="url(#clip1_175_1969)">
        <path
            d="M340.005 460.735C341.925 461.042 345.704 474.159 365.486 466.955C383.518 460.391 379.917 445.932 380.327 444.404"
            stroke="#231F20" stroke-width="3" stroke-miterlimit="10" />
        <path d="M392.143 481.186L437.622 494.144" stroke="#231F20" stroke-width="3" stroke-miterlimit="10" />
        <path d="M371.763 383.337L378.7 436.104" stroke="#231F20" stroke-width="3" stroke-miterlimit="10" />
        <path d="M397.805 498.814L433.89 508.019" stroke="#231F20" stroke-width="3" stroke-miterlimit="10" />
        <path d="M423.843 540.973L451.565 451.809" stroke="#231F20" stroke-width="3" stroke-miterlimit="10" />
        <path d="M339.11 458.616L377.604 549.294" stroke="#231F20" stroke-width="3" stroke-miterlimit="10" />
        <path d="M442.952 546.158L422.543 540.133" stroke="#231F20" stroke-width="3" stroke-miterlimit="10" />
        <path d="M450.172 451.399L471.173 457.649" stroke="#231F20" stroke-width="3" stroke-miterlimit="10" />
        <path d="M412.285 538.876L375.893 548.627" stroke="#231F20" stroke-width="3" stroke-miterlimit="10" />
        <path
            d="M388.992 545.537C389.346 551.118 399.71 564.894 409.726 560.493C431.353 550.991 435.375 565.571 438.402 570.888"
            stroke="#231F20" stroke-width="3" stroke-miterlimit="10" />
        <path d="M304.174 410.578L335.788 453.385" stroke="#231F20" stroke-width="3" stroke-miterlimit="10" />
        <path d="M380.001 443.379L411.226 540.593" stroke="#231F20" stroke-width="3" stroke-miterlimit="10" />
        <path d="M338.33 460.449L381.699 444.23" stroke="#231F20" stroke-width="3" stroke-miterlimit="10" />
    </g>
    <path d="M456.055 370.547L429.599 289.73" stroke="#231F20" stroke-width="3" stroke-miterlimit="10" />
    <path d="M511.457 287.233L428.729 290.818" stroke="#231F20" stroke-width="3" stroke-miterlimit="10" />
    <path d="M414.606 280.899L510.215 274.665" stroke="#231F20" stroke-width="3" stroke-miterlimit="10" />
    <path d="M415.467 279.591L444.167 373.834" stroke="#231F20" stroke-width="3" stroke-miterlimit="10" />
    <path d="M455.603 369.154L442.779 372.586" stroke="#231F20" stroke-width="3" stroke-miterlimit="10" />
    <path d="M511.594 288.95L509.825 272.758" stroke="#231F20" stroke-width="3" stroke-miterlimit="10" />
    <path d="M454.477 367.528L477.739 382.264L500.5 396.5" stroke="#231F20" stroke-width="3" stroke-miterlimit="10" />
    <path d="M557.023 169.064L632.62 239.974" stroke="#231F20" stroke-width="3" stroke-miterlimit="10" />
    <path d="M559.703 166.095L472.588 262.61" stroke="#231F20" stroke-width="3" stroke-miterlimit="10" />
    <path d="M547.797 155.354L560.845 167.125" stroke="#231F20" stroke-width="3" stroke-miterlimit="10" />
    <path d="M459.54 250.839L473.774 263.68" stroke="#231F20" stroke-width="3" stroke-miterlimit="10" />
    <path d="M548.883 154.151L459.655 253.008" stroke="#231F20" stroke-width="3" stroke-miterlimit="10" />
    <path d="M494.331 324.148L532.498 348.248" stroke="#231F20" stroke-width="3" stroke-miterlimit="10" />
    <path d="M507.329 303.573L545.497 327.673" stroke="#231F20" stroke-width="3" stroke-miterlimit="10" />
    <path d="M493.512 325.445L508.133 302.3" stroke="#231F20" stroke-width="3" stroke-miterlimit="10" />
    <path d="M471.17 360.811L488.964 332.645" stroke="#231F20" stroke-width="3" stroke-miterlimit="10" />
    <path d="M489.135 372.187L506.092 345.344" stroke="#231F20" stroke-width="3" stroke-miterlimit="10" />
    <path d="M470.636 358.725L491.341 371.798" stroke="#231F20" stroke-width="3" stroke-miterlimit="10" />
    <path d="M488.113 333.992L507.419 346.182" stroke="#231F20" stroke-width="3" stroke-miterlimit="10" />
    <path d="M500.035 240.784L540.796 195.625" stroke="#231F20" stroke-width="3" stroke-miterlimit="10" />
    <path d="M508.551 258.655L559.331 202.396" stroke="#231F20" stroke-width="3" stroke-miterlimit="10" />
    <path d="M498.87 239.733L513.62 253.039" stroke="#231F20" stroke-width="3" stroke-miterlimit="10" />
    <path d="M539.63 194.574L553.218 206.832" stroke="#231F20" stroke-width="3" stroke-miterlimit="10" />
    <path d="M573.39 217.772L613.366 255.373" stroke="#231F20" stroke-width="3" stroke-miterlimit="10" />
    <path d="M555.604 233.557L595.396 273.339" stroke="#231F20" stroke-width="3" stroke-miterlimit="10" />
    <path d="M541.245 253.386L579.695 286.999" stroke="#231F20" stroke-width="3" stroke-miterlimit="10" />
    <path d="M526.34 269.199L564.589 303.496" stroke="#231F20" stroke-width="3" stroke-miterlimit="10" />
    <path d="M508.964 257.095L515.583 275.058" stroke="#231F20" stroke-width="3" stroke-miterlimit="10" />
    <path d="M557.924 202.923L579.55 206.006" stroke="#231F20" stroke-width="3" stroke-miterlimit="10" />
    <path d="M579.55 206.007C579.55 206.007 572.25 207.538 574.167 218.473" stroke="#231F20" stroke-width="3"
        stroke-miterlimit="10" />
    <path d="M556.968 235.966C557.398 236.354 557.553 219.756 574.167 218.473" stroke="#231F20" stroke-width="3"
        stroke-miterlimit="10" />
    <path d="M541.245 253.386C539.65 248.191 545.501 236.577 556.968 235.966" stroke="#231F20" stroke-width="3"
        stroke-miterlimit="10" />
    <path d="M526.686 269.516C524.778 266.104 530.701 254.839 541.245 253.385" stroke="#231F20" stroke-width="3"
        stroke-miterlimit="10" />
    <path d="M526.491 268.977C526.491 268.977 514.36 268.031 515.957 274.802" stroke="#231F20" stroke-width="3"
        stroke-miterlimit="10" />
    <path d="M476.02 259.223L495.274 275.905" stroke="#231F20" stroke-width="3" stroke-miterlimit="10" />
    <path d="M508.11 286.172L549.766 320.914" stroke="#231F20" stroke-width="3" stroke-miterlimit="10" />
    <g clip-path="url(#clip2_175_1969)">
        <path d="M763.679 134.296L766.278 120.981" stroke="#231F20" stroke-width="3" stroke-miterlimit="10" />
        <path d="M786.48 122.483L769.26 127.061" stroke="#231F20" stroke-width="3" stroke-miterlimit="10" />
        <path d="M781.669 108.457L785.257 124.456" stroke="#231F20" stroke-width="3" stroke-miterlimit="10" />
        <path d="M773.155 109.29L783.005 114.533" stroke="#231F20" stroke-width="3" stroke-miterlimit="10" />
        <path d="M754.578 116.245L774.548 109.405" stroke="#231F20" stroke-width="3" stroke-miterlimit="10" />
        <path d="M765.714 132.968L751.065 130.338" stroke="#231F20" stroke-width="3" stroke-miterlimit="10" />
        <path d="M767.024 120.774L775.886 125.491" stroke="#231F20" stroke-width="3" stroke-miterlimit="10" />
        <path d="M752.342 132.257L755.716 114.945" stroke="#231F20" stroke-width="3" stroke-miterlimit="10" />
        <path d="M783.625 127.68L791.487 138.72" stroke="#231F20" stroke-width="3" stroke-miterlimit="10" />
        <path d="M776.378 152.211L785.005 136.676" stroke="#231F20" stroke-width="3" stroke-miterlimit="10" />
        <path d="M787.138 156.41L775.792 149.973" stroke="#231F20" stroke-width="3" stroke-miterlimit="10" />
        <path d="M795.201 151.717L784.563 155.187" stroke="#231F20" stroke-width="3" stroke-miterlimit="10" />
        <path d="M803.048 133.572L794.148 152.641" stroke="#231F20" stroke-width="3" stroke-miterlimit="10" />
        <path d="M783.185 130.057L795.259 121.331" stroke="#231F20" stroke-width="3" stroke-miterlimit="10" />
        <path d="M791.12 139.399L781.546 142.52" stroke="#231F20" stroke-width="3" stroke-miterlimit="10" />
        <path d="M792.979 120.931L803.205 135.283" stroke="#231F20" stroke-width="3" stroke-miterlimit="10" />
        <path d="M772.91 148.935L759.979 153.235" stroke="#231F20" stroke-width="3" stroke-miterlimit="10" />
        <path d="M751.478 134.957L763.855 147.655" stroke="#231F20" stroke-width="3" stroke-miterlimit="10" />
        <path d="M741.527 146.039L753.803 135.049" stroke="#231F20" stroke-width="3" stroke-miterlimit="10" />
        <path d="M746.392 153.018L746.201 141.891" stroke="#231F20" stroke-width="3" stroke-miterlimit="10" />
        <path d="M761.508 165.726L745.814 151.751" stroke="#231F20" stroke-width="3" stroke-miterlimit="10" />
        <path d="M770.759 147.829L775.568 161.837" stroke="#231F20" stroke-width="3" stroke-miterlimit="10" />
        <path d="M759.434 152.691L759.261 142.678" stroke="#231F20" stroke-width="3" stroke-miterlimit="10" />
        <path d="M776.63 159.785L759.818 165.376" stroke="#231F20" stroke-width="3" stroke-miterlimit="10" />
        <path d="M760.339 152.069L757.483 152.711L757.771 155.921L760.662 155.014" fill="#231F20" />
        <path d="M789.045 132.083L789.22 138.595L782.77 144.076L795.112 140.194" fill="#231F20" />
        <path d="M764.831 117.42L761.622 133.461L767.399 122.554L778.309 124.478" fill="#231F20" />
        <path d="M863.152 71.6143L859.197 138.823" stroke="#231F20" stroke-width="3" stroke-miterlimit="10" />
        <path d="M864.101 52.9845L646.335 131.838" stroke="#231F20" stroke-width="3" stroke-miterlimit="10" />
        <path d="M862.024 51.9463L868.963 71.0997" stroke="#231F20" stroke-width="3" stroke-miterlimit="10" />
        <path d="M647.087 129.776L654.026 148.929" stroke="#231F20" stroke-width="3" stroke-miterlimit="10" />
        <path d="M652.192 148.004L869.957 69.1503" stroke="#231F20" stroke-width="3" stroke-miterlimit="10" />
        <path d="M704.927 194.749L660.058 145.155" stroke="#231F20" stroke-width="3" stroke-miterlimit="10" />
    </g>
    <g clip-path="url(#clip3_175_1969)">
        <path d="M1298.01 95.1516L1444.76 225.1" stroke="#231F20" stroke-width="3" stroke-miterlimit="10" />
        <path d="M1419.93 215.234L1389.21 249.91" stroke="#231F20" stroke-width="3" stroke-miterlimit="10" />
        <path d="M1441.13 293.793L1388.84 247.492" stroke="#231F20" stroke-width="3" stroke-miterlimit="10" />
        <path d="M1418.68 216.641L1444.04 239.1" stroke="#231F20" stroke-width="3" stroke-miterlimit="10" />
        <path d="M1444.24 223.575L1440.48 294.165" stroke="#231F20" stroke-width="3" stroke-miterlimit="10" />
        <path
            d="M1254.67 212.614C1259.29 216.703 1266.36 216.268 1270.46 211.643C1274.55 207.017 1274.13 199.952 1269.51 195.863C1264.9 191.774 1257.83 192.209 1253.73 196.835C1249.63 201.46 1250.06 208.525 1254.67 212.614Z"
            stroke="#231F20" stroke-width="3" stroke-miterlimit="10" />
        <path
            d="M1359.8 305.706C1364.42 309.796 1371.48 309.361 1375.58 304.735C1379.68 300.109 1379.26 293.045 1374.64 288.955C1370.02 284.866 1362.96 285.301 1358.86 289.927C1354.76 294.552 1355.18 301.617 1359.8 305.706Z"
            stroke="#231F20" stroke-width="3" stroke-miterlimit="10" />
        <path d="M1236.26 164.851L1248.39 175.596" stroke="#231F20" stroke-width="3" stroke-miterlimit="10" />
        <path d="M1293.15 215.224L1351.72 267.094" stroke="#231F20" stroke-width="3" stroke-miterlimit="10" />
        <path d="M1399.9 309.756L1414.48 322.666" stroke="#231F20" stroke-width="3" stroke-miterlimit="10" />
        <path d="M1246.94 174.308C1256.38 163.649 1275.41 165.114 1287.37 175.705" stroke="#231F20" stroke-width="3"
            stroke-miterlimit="10" />
        <path d="M1294.5 216.42C1303.94 205.765 1300.52 187.356 1286.86 175.259" stroke="#231F20" stroke-width="3"
            stroke-miterlimit="10" />
        <path d="M1349.97 266.241C1359.41 255.581 1376.73 255.527 1388.69 266.115" stroke="#231F20" stroke-width="3"
            stroke-miterlimit="10" />
        <path d="M1401.15 310.86C1410.17 298.159 1408.78 281.043 1388.18 265.669" stroke="#231F20" stroke-width="3"
            stroke-miterlimit="10" />
        <path d="M1227.02 175.277L1299.26 93.7449" stroke="#231F20" stroke-width="3" stroke-miterlimit="10" />
        <path d="M1277.93 218.262L1351.37 283.295" stroke="#231F20" stroke-width="3" stroke-miterlimit="10" />
        <path d="M1383.08 311.37L1407.45 332.956" stroke="#231F20" stroke-width="3" stroke-miterlimit="10" />
        <path d="M1246.23 190.19L1226.79 172.977" stroke="#231F20" stroke-width="3" stroke-miterlimit="10" />
        <path d="M1440.8 292.95L1405.01 333.35" stroke="#231F20" stroke-width="3" stroke-miterlimit="10" />
        <path d="M1244.89 189.003C1253.95 178.774 1268.97 177.301 1278.48 185.717" stroke="#231F20" stroke-width="3"
            stroke-miterlimit="10" />
        <path d="M1279.28 219.458C1288.34 209.229 1287.76 193.941 1277.98 185.278" stroke="#231F20" stroke-width="3"
            stroke-miterlimit="10" />
        <path d="M1350.03 282.108C1359.09 271.879 1374.12 270.409 1383.62 278.822" stroke="#231F20" stroke-width="3"
            stroke-miterlimit="10" />
        <path d="M1384.41 312.554C1393.48 302.324 1392.9 287.036 1383.11 278.373" stroke="#231F20" stroke-width="3"
            stroke-miterlimit="10" />
    </g>
    <path d="M1551.71 322.263L1583.44 412.012" stroke="#231F20" stroke-width="3" stroke-miterlimit="10" />
    <path d="M1609.57 527.159L1554.58 546.591" stroke="#231F20" stroke-width="3" stroke-miterlimit="10" />
    <path d="M1516.76 433.448L1556.52 545.905" stroke="#231F20" stroke-width="3" stroke-miterlimit="10" />
    <path d="M1549.56 526.21L1478 551" stroke="#231F20" stroke-width="3" stroke-miterlimit="10" />
    <path d="M1552.73 536.019L1480 562" stroke="#231F20" stroke-width="3" stroke-miterlimit="10" />
    <path d="M1586.78 421.451L1582.16 455.798" stroke="#231F20" stroke-width="3" stroke-miterlimit="10" />
    <path d="M1598.98 454.03L1594.37 488.376" stroke="#231F20" stroke-width="3" stroke-miterlimit="10" />
    <path d="M1611.35 491.248L1606.74 525.593" stroke="#231F20" stroke-width="3" stroke-miterlimit="10" />
    <path d="M1585.61 430.14L1574.48 434.072" stroke="#231F20" stroke-width="3" stroke-miterlimit="10" />
    <path d="M1598.35 461.791L1587.22 465.723" stroke="#231F20" stroke-width="3" stroke-miterlimit="10" />
    <path d="M1609.74 498.402L1598.61 502.335" stroke="#231F20" stroke-width="3" stroke-miterlimit="10" />
    <path d="M1457.86 385.333L1423.32 397.818" stroke="#231F20" stroke-width="3" stroke-miterlimit="10" />
    <path d="M1470.74 421.764L1440.01 433.75" stroke="#231F20" stroke-width="3" stroke-miterlimit="10" />
    <path d="M1457.24 383.598L1471.37 423.55" stroke="#231F20" stroke-width="3" stroke-miterlimit="10" />
    <path d="M1431.02 415.784L1464.3 403.546" stroke="#231F20" stroke-width="3" stroke-miterlimit="10" />
    <path d="M1542.98 344.978L1466.57 371.98" stroke="#231F20" stroke-width="3" stroke-miterlimit="10" />
    <path d="M1550.34 365.796L1473.93 392.798" stroke="#231F20" stroke-width="3" stroke-miterlimit="10" />
    <path d="M1465.94 370.194L1474.58 394.636" stroke="#231F20" stroke-width="3" stroke-miterlimit="10" />
    <path d="M1486.12 364.956L1493.48 385.773" stroke="#231F20" stroke-width="3" stroke-miterlimit="10" />
    <path d="M1504.85 358.684L1512.21 379.497" stroke="#231F20" stroke-width="3" stroke-miterlimit="10" />
    <path d="M1524.38 351.435L1531.74 372.253" stroke="#231F20" stroke-width="3" stroke-miterlimit="10" />
    <path d="M1542.37 343.243L1551.01 367.681" stroke="#231F20" stroke-width="3" stroke-miterlimit="10" />
    <path d="M1555.45 380.234L1479.03 407.237" stroke="#231F20" stroke-width="3" stroke-miterlimit="10" />
    <path d="M1562.81 401.052L1486.39 428.054" stroke="#231F20" stroke-width="3" stroke-miterlimit="10" />
    <path d="M1478.38 405.398L1487.04 429.893" stroke="#231F20" stroke-width="3" stroke-miterlimit="10" />
    <path d="M1498.58 400.211L1505.94 421.029" stroke="#231F20" stroke-width="3" stroke-miterlimit="10" />
    <path d="M1517.31 393.94L1524.67 414.758" stroke="#231F20" stroke-width="3" stroke-miterlimit="10" />
    <path d="M1536.84 386.691L1544.2 407.509" stroke="#231F20" stroke-width="3" stroke-miterlimit="10" />
    <path d="M1554.83 378.499L1563.47 402.942" stroke="#231F20" stroke-width="3" stroke-miterlimit="10" />
    <path d="M1533.39 442.5L1565.73 533.985" stroke="#231F20" stroke-width="3" stroke-miterlimit="10" />
    <path d="M1561.16 430.793L1594.1 523.961" stroke="#231F20" stroke-width="3" stroke-miterlimit="10" />
    <path d="M1563.38 532.69L1591.99 522.579" stroke="#231F20" stroke-width="3" stroke-miterlimit="10" />
    <path d="M1531.55 443.151L1563.59 431.829" stroke="#231F20" stroke-width="3" stroke-miterlimit="10" />
    <path d="M1586.12 548.306L1483 586" stroke="#231F20" stroke-width="3" stroke-miterlimit="10" />
    <path d="M1581.47 549.946L1587.9 568.108" stroke="#231F20" stroke-width="3" stroke-miterlimit="10" />
    <path d="M1542.7 563.646L1549.12 581.808" stroke="#231F20" stroke-width="3" stroke-miterlimit="10" />
    <path d="M1589.63 567.495L1547.55 581.813" stroke="#231F20" stroke-width="3" stroke-miterlimit="10" />
    <path d="M1495.75 447.678L1516.5 515.169" stroke="#231F20" stroke-width="3" stroke-miterlimit="10" />
    <path d="M1509.84 507.547L1495.42 511.976" stroke="#231F20" stroke-width="3" stroke-miterlimit="10" />
    <path d="M1502.88 534.393L1495.37 509.958" stroke="#231F20" stroke-width="3" stroke-miterlimit="10" />
    <path d="M1507.91 508.138L1511.58 520.073" stroke="#231F20" stroke-width="3" stroke-miterlimit="10" />
    <path d="M1516.86 513.562L1502.4 534.699" stroke="#231F20" stroke-width="3" stroke-miterlimit="10" />
    <path
        d="M1462.31 476.552C1462.94 478.6 1465.11 479.751 1467.16 479.122C1469.2 478.492 1470.35 476.322 1469.72 474.274C1469.1 472.226 1466.93 471.075 1464.88 471.704C1462.83 472.334 1461.68 474.504 1462.31 476.552Z"
        stroke="#231F20" stroke-width="3" stroke-miterlimit="10" />
    <path
        d="M1476.65 523.198C1477.28 525.246 1479.45 526.396 1481.49 525.767C1483.54 525.138 1484.69 522.968 1484.06 520.919C1483.43 518.871 1481.26 517.721 1479.21 518.35C1477.17 518.979 1476.02 521.149 1476.65 523.198Z"
        stroke="#231F20" stroke-width="3" stroke-miterlimit="10" />
    <path d="M1460.86 460.474L1496.96 449.382" stroke="#231F20" stroke-width="3" stroke-miterlimit="10" />
    <path d="M1468.18 482.44L1478.19 515.021" stroke="#231F20" stroke-width="3" stroke-miterlimit="10" />
    <path d="M1482.52 529.09L1485.84 539.907" stroke="#231F20" stroke-width="3" stroke-miterlimit="10" />
    <path d="M1463.85 468.376L1460.79 458.417" stroke="#231F20" stroke-width="3" stroke-miterlimit="10" />
    <path d="M1503.6 533.881L1483.77 539.972" stroke="#231F20" stroke-width="3" stroke-miterlimit="10" />
    <path d="M1461.33 466.973C1466.92 465.255 1472.68 467.908 1474.2 472.878" stroke="#231F20" stroke-width="3"
        stroke-miterlimit="10" />
    <path d="M1466.86 484.974C1472.45 483.256 1475.7 477.757 1474.14 472.668" stroke="#231F20" stroke-width="3"
        stroke-miterlimit="10" />
    <path d="M1475.73 513.841C1481.32 512.124 1487.05 514.672 1488.55 519.542" stroke="#231F20" stroke-width="3"
        stroke-miterlimit="10" />
    <path d="M1481.16 531.496C1486.75 529.779 1490.02 524.331 1488.48 519.314" stroke="#231F20" stroke-width="3"
        stroke-miterlimit="10" />
    <path d="M1544.36 326.811L1574.81 412.935" stroke="#231F20" stroke-width="3" stroke-miterlimit="10" />
    <path d="M1552.32 323.999L1407 377" stroke="#231F20" stroke-width="3" stroke-miterlimit="10" />
    <path d="M1582.77 410.123L1448 458" stroke="#231F20" stroke-width="3" stroke-miterlimit="10" />
    <path d="M1568.16 416.206L1607.63 527.844" stroke="#231F20" stroke-width="3" stroke-miterlimit="10" />
    <path d="M1470.73 180.745H1790.79" stroke="#231F20" stroke-width="3" stroke-miterlimit="10" />
    <path d="M1790.79 180.745C1761.89 142.32 1661.78 90.4807 1649.79 121.511" stroke="#231F20" stroke-width="3"
        stroke-miterlimit="10" />
    <path d="M1649.79 121.511C1613.14 29.8299 1532.06 57.3356 1537.7 126.445" stroke="#231F20" stroke-width="3"
        stroke-miterlimit="10" />
    <path d="M1537.7 126.446C1461.56 58.0683 1410.1 151.125 1470.73 180.745" stroke="#231F20" stroke-width="3"
        stroke-miterlimit="10" />
    <g clip-path="url(#clip4_175_1969)">
        <path d="M252.961 132.362H538.294" stroke="#231F20" stroke-width="3" stroke-miterlimit="10" />
        <path d="M538.294 132.339C565.116 107.413 511.078 18.6595 476.107 80.0624" stroke="#231F20" stroke-width="3"
            stroke-miterlimit="10" />
        <path d="M476.107 80.0862C502.929 22.9428 412.086 0.447643 412.086 75.219" stroke="#231F20" stroke-width="3"
            stroke-miterlimit="10" />
        <path d="M412.086 72.1688C426.718 6.51829 301.125 -26.9206 321.267 66.4319" stroke="#231F20" stroke-width="3"
            stroke-miterlimit="10" />
        <path d="M321.243 66.4438C288.321 -22.6491 182.845 89.8087 252.961 132.339" stroke="#231F20" stroke-width="3"
            stroke-miterlimit="10" />
    </g>
    <path d="M1111.41 87.2632L1008.82 70.4055L999.09 128.97" stroke="#231F20" stroke-width="3" stroke-miterlimit="10" />
    <path d="M1065.92 79.9631L1052.98 77.8376L1049.79 97.2487L1062.72 99.3741L1065.92 79.9631Z" stroke="#231F20"
        stroke-width="3" stroke-miterlimit="10" />
    <path d="M1008.74 69.6798L976.133 105.297" stroke="#231F20" stroke-width="3" stroke-miterlimit="10" />
    <path d="M1110.29 86.3999L1130.25 129.626" stroke="#231F20" stroke-width="3" stroke-miterlimit="10" />
    <path d="M1135.55 50.455L1122.61 48.3296L1119.42 67.7406L1132.35 69.866L1135.55 50.455Z" stroke="#231F20"
        stroke-width="3" stroke-miterlimit="10" />
    <path
        d="M1151.2 162.694L1100.5 146.653L1109.48 88.2633L1082.52 83.1301L1089.47 42.8835L1168.69 55.9011L1151.2 162.694Z"
        stroke="#231F20" stroke-width="3" stroke-miterlimit="10" />
    <path d="M1089.35 42.1753L1060.9 73.2546" stroke="#231F20" stroke-width="3" stroke-miterlimit="10" />
    <path d="M1169.04 55.25L1185.84 93.8918" stroke="#231F20" stroke-width="3" stroke-miterlimit="10" />
    <path d="M1142.06 136.574L1139.7 151.227" stroke="#231F20" stroke-width="3" stroke-miterlimit="10" />
    <path d="M1143.8 134.263L1133.51 140.723" stroke="#231F20" stroke-width="3" stroke-miterlimit="10" />
    <path d="M1148.19 143.259L1141.63 133.957" stroke="#231F20" stroke-width="3" stroke-miterlimit="10" />
    <path d="M1124.35 133.257L1121.98 147.915" stroke="#231F20" stroke-width="3" stroke-miterlimit="10" />
    <path d="M1126.09 130.951L1116.51 136.954" stroke="#231F20" stroke-width="3" stroke-miterlimit="10" />
    <path d="M1130.48 139.942L1123.91 130.644" stroke="#231F20" stroke-width="3" stroke-miterlimit="10" />
    <path d="M1016.27 107.015L1013.91 121.668" stroke="#231F20" stroke-width="3" stroke-miterlimit="10" />
    <path d="M1018.01 104.704L1007.72 111.16" stroke="#231F20" stroke-width="3" stroke-miterlimit="10" />
    <path d="M1022.4 113.699L1015.84 104.397" stroke="#231F20" stroke-width="3" stroke-miterlimit="10" />
    <path d="M1035.29 107.64L1024.99 114.095" stroke="#231F20" stroke-width="3" stroke-miterlimit="10" />
    <path d="M1039.67 116.635L1033.11 107.333" stroke="#231F20" stroke-width="3" stroke-miterlimit="10" />
    <path d="M1033.54 109.95L1031.18 124.604" stroke="#231F20" stroke-width="3" stroke-miterlimit="10" />
    <defs>
        <clipPath id="clip0_175_1969">
            <rect width="1078.48" height="550" fill="white" transform="translate(420 118)" />
        </clipPath>
        <clipPath id="clip1_175_1969">
            <rect width="161.472" height="179.141" fill="white"
                transform="matrix(0.309421 -0.950925 0.950971 0.30928 268.063 518.725)" />
        </clipPath>
        <clipPath id="clip2_175_1969">
            <rect width="232.042" height="81.4567" fill="white"
                transform="matrix(0.940255 -0.34047 0.340621 0.940201 645.456 130.334)" />
        </clipPath>
        <clipPath id="clip3_175_1969">
            <rect width="242.014" height="120.573" fill="white"
                transform="matrix(0.748661 0.662953 -0.663141 0.748495 1297.9 92.3967)" />
        </clipPath>
        <clipPath id="clip4_175_1969">
            <rect width="320.902" height="128.328" fill="white" transform="translate(227 6.41699)" />
        </clipPath>
    </defs>
</svg>