<svg width="572" height="343" viewBox="0 0 572 343" fill="none" xmlns="http://www.w3.org/2000/svg">
<g clip-path="url(#clip0_3_11)">
<path d="M27.11 216.84L154.58 46.01" stroke="#231F20" stroke-width="8" stroke-miterlimit="10"/>
<path d="M278.2 209.83L151.09 45.8" stroke="#231F20" stroke-width="8" stroke-miterlimit="10"/>
<path d="M150.99 2.59003L302.18 189.14" stroke="#231F20" stroke-width="8" stroke-miterlimit="10"/>
<path d="M154.92 2.46002L3.16 197.27" stroke="#231F20" stroke-width="8" stroke-miterlimit="10"/>
<path d="M29.31 213.9L3.71 192.63" stroke="#231F20" stroke-width="8" stroke-miterlimit="10"/>
<path d="M275.34 212.3L305.36 186.4" stroke="#231F20" stroke-width="8" stroke-miterlimit="10"/>
<path d="M43.74 338.81H262.04" stroke="#231F20" stroke-width="8" stroke-miterlimit="10"/>
<path d="M258.11 183.9V338.81" stroke="#231F20" stroke-width="8" stroke-miterlimit="10"/>
<path d="M47.78 189.14V338.81" stroke="#231F20" stroke-width="8" stroke-miterlimit="10"/>
<path d="M260.29 294.3H557.45" stroke="#231F20" stroke-width="8" stroke-miterlimit="10"/>
<path d="M557.45 75.69V298.23" stroke="#231F20" stroke-width="8" stroke-miterlimit="10"/>
<path d="M567.49 75.69H241.09" stroke="#231F20" stroke-width="8" stroke-miterlimit="10"/>
<path d="M567.49 35.54V79.54" stroke="#231F20" stroke-width="8" stroke-miterlimit="10"/>
<path d="M241.09 31.69V79.69" stroke="#231F20" stroke-width="8" stroke-miterlimit="10"/>
<path d="M571.56 35.54H237.24" stroke="#231F20" stroke-width="8" stroke-miterlimit="10"/>
<path d="M258.11 75.69V134.05" stroke="#231F20" stroke-width="8" stroke-miterlimit="10"/>
<path d="M176.94 225.79V338.81" stroke="#231F20" stroke-width="8" stroke-miterlimit="10"/>
<path d="M238.04 225.79V338.81" stroke="#231F20" stroke-width="8" stroke-miterlimit="10"/>
<path d="M173.09 225.79H241.82" stroke="#231F20" stroke-width="8" stroke-miterlimit="10"/>
<path d="M68.07 225.79H151.71" stroke="#231F20" stroke-width="8" stroke-miterlimit="10"/>
<path d="M68 279.03H147.71" stroke="#231F20" stroke-width="8" stroke-miterlimit="10"/>
<path d="M71.78 221.87V283.18" stroke="#231F20" stroke-width="8" stroke-miterlimit="10"/>
<path d="M147.71 225.79V282.96" stroke="#231F20" stroke-width="8" stroke-miterlimit="10"/>
<path d="M327.93 90.09H480.65" stroke="#231F20" stroke-width="8" stroke-miterlimit="10"/>
<path d="M308.94 135.9H499.2" stroke="#231F20" stroke-width="8" stroke-miterlimit="10"/>
<path d="M327.93 86.16V135.9" stroke="#231F20" stroke-width="8" stroke-miterlimit="10"/>
<path d="M480.65 86.16V131.98" stroke="#231F20" stroke-width="8" stroke-miterlimit="10"/>
<path d="M494.18 187.83V294.3" stroke="#231F20" stroke-width="8" stroke-miterlimit="10"/>
<path d="M432.65 187.83V294.3" stroke="#231F20" stroke-width="8" stroke-miterlimit="10"/>
<path d="M373.74 187.83V294.3" stroke="#231F20" stroke-width="8" stroke-miterlimit="10"/>
<path d="M319.2 187.83V294.3" stroke="#231F20" stroke-width="8" stroke-miterlimit="10"/>
<path d="M312.54 134.05L290.19 176.49" stroke="#231F20" stroke-width="8" stroke-miterlimit="10"/>
<path d="M495.85 134.17L526.47 179.54" stroke="#231F20" stroke-width="8" stroke-miterlimit="10"/>
<path d="M526.47 179.54C526.47 179.54 511.34 168.54 494.18 190.45" stroke="#231F20" stroke-width="8" stroke-miterlimit="10"/>
<path d="M432.65 187.83C432.65 189.28 463.85 161.72 494.18 190.45" stroke="#231F20" stroke-width="8" stroke-miterlimit="10"/>
<path d="M373.74 187.83C380.74 176.15 412.23 167.54 432.65 187.83" stroke="#231F20" stroke-width="8" stroke-miterlimit="10"/>
<path d="M319.19 187.83C322.34 178.56 353.3 170.67 373.74 187.83" stroke="#231F20" stroke-width="8" stroke-miterlimit="10"/>
<path d="M319.19 187.83C319.19 187.83 305.45 169.5 296.07 179.04" stroke="#231F20" stroke-width="8" stroke-miterlimit="10"/>
</g>
<defs>
<clipPath id="clip0_3_11">
<rect width="571.56" height="342.81" fill="white"/>
</clipPath>
</defs>
</svg>
